<svg width="24" height="24" viewBox="0 0 24 24" fill="none" xmlns="http://www.w3.org/2000/svg">
<path d="M22 20V12.174C22.0001 11.6296 21.889 11.0908 21.6735 10.5908C21.458 10.0907 21.1428 9.63995 20.747 9.26603L13.374 2.29803C13.0027 1.94696 12.511 1.75134 12 1.75134C11.489 1.75134 10.9973 1.94696 10.626 2.29803L3.253 9.26603C2.85722 9.63995 2.54195 10.0907 2.3265 10.5908C2.11104 11.0908 1.99994 11.6296 2 12.174V20C2 20.5305 2.21071 21.0392 2.58579 21.4142C2.96086 21.7893 3.46957 22 4 22H20C20.5304 22 21.0391 21.7893 21.4142 21.4142C21.7893 21.0392 22 20.5305 22 20Z" stroke="white" stroke-width="2.17" stroke-linecap="round" stroke-linejoin="round"/>
</svg>
