<svg width="24" height="16" viewBox="0 0 24 16" fill="none" xmlns="http://www.w3.org/2000/svg">
<path d="M2 5.75C2 7.18222 2.64273 8.46983 3.64931 9.34166C1.7758 10.4194 0.5 12.4359 0.5 14.75V15H0.75H2.25H2.5V14.75C2.5 12.3951 4.39507 10.5 6.75 10.5C9.10493 10.5 11 12.3951 11 14.75V15H11.25H12.75H13V14.75C13 12.3951 14.8951 10.5 17.25 10.5C19.6049 10.5 21.5 12.3951 21.5 14.75V15H21.75H23.25H23.5V14.75C23.5 12.4355 22.2246 10.4199 20.3516 9.34215C20.817 8.9405 21.2012 8.45153 21.4815 7.90156C21.8211 7.23527 21.9987 6.49827 22 5.75042V5.75C22 3.13693 19.8631 1 17.25 1C14.6369 1 12.5 3.13693 12.5 5.75C12.5 7.18172 13.1423 8.46892 14.1482 9.34074C13.2821 9.83511 12.5458 10.5282 12 11.3625C11.4544 10.5285 10.7184 9.83557 9.85262 9.34123C10.3176 8.93976 10.7014 8.45111 10.9815 7.90156C11.3211 7.23527 11.4987 6.49827 11.5 5.75042V5.75C11.5 3.13693 9.36307 1 6.75 1C4.13693 1 2 3.13693 2 5.75ZM6.75 3C8.27918 3 9.5 4.22082 9.5 5.75C9.5 7.27918 8.27918 8.5 6.75 8.5C5.22082 8.5 4 7.27918 4 5.75C4 4.22082 5.22082 3 6.75 3ZM17.25 3C18.7792 3 20 4.22082 20 5.75C20 7.27918 18.7792 8.5 17.25 8.5C15.7208 8.5 14.5 7.27918 14.5 5.75C14.5 4.22082 15.7208 3 17.25 3Z" fill="white" stroke="white" stroke-width="0.5"/>
</svg>
